<?xml version="1.0" encoding="utf-8"?>
<!-- Generator: Adobe Illustrator 26.0.0, SVG Export Plug-In . SVG Version: 6.00 Build 0)  -->
<svg version="1.1" id="Capa_1" xmlns="http://www.w3.org/2000/svg" xmlns:xlink="http://www.w3.org/1999/xlink" x="0px" y="0px"
	 viewBox="0 0 700 200" style="enable-background:new 0 0 700 200;" xml:space="preserve">
<style type="text/css">
	.st0{fill:url(#SVGID_1_);}
	.st1{fill:url(#SVGID_00000114755532393367761630000016775358185390642360_);}
	.st2{fill:url(#SVGID_00000169545196617422414840000013055238597367846303_);}
	.st3{fill:url(#SVGID_00000122688456057761434520000001291118698439234732_);}
	.st4{fill:url(#SVGID_00000144307303977352929140000010135565375592025999_);}
	.st5{fill:url(#SVGID_00000155116992212321033360000000817156390863476647_);}
	.st6{fill:url(#SVGID_00000055688814481499991290000012937957928862899850_);}
	.st7{fill:url(#SVGID_00000088120136396801040490000002493152158772272278_);}
	.st8{fill:url(#SVGID_00000167373988174537123860000017251352986407527296_);}
	.st9{fill:url(#SVGID_00000170270453157041258080000003909483461492444090_);}
	.st10{fill:url(#SVGID_00000008115237208063392130000005340783382935017623_);}
	.st11{fill:url(#SVGID_00000093159232660350010870000009615093727155583901_);}
	.st12{fill:url(#SVGID_00000037683198484955750390000015670231259505316755_);}
	.st13{fill:url(#SVGID_00000065042679581207093760000008006541105479988872_);}
	.st14{fill:url(#SVGID_00000169549907981257313100000014536988277293922443_);}
	.st15{fill:url(#SVGID_00000047027288603448623080000016286383252807673780_);}
	.st16{fill:url(#SVGID_00000182486849037095656950000014401410883106099903_);}
	.st17{fill:url(#SVGID_00000150082126176904375770000010692157834279250597_);}
	.st18{fill:url(#SVGID_00000094590730844166330500000016750512886273663616_);}
	.st19{fill:url(#SVGID_00000025429482776351553820000011146922625493222802_);}
	.st20{fill:url(#SVGID_00000180358514106644342940000009480182243375333054_);}
	.st21{fill:url(#SVGID_00000140011598399795662680000011739641825277382073_);}
	.st22{fill:url(#SVGID_00000060716387423365348980000011217079305555559042_);}
	.st23{fill:url(#SVGID_00000062175863899348094990000011224238818382107786_);}
</style>
<g>
	<linearGradient id="SVGID_1_" gradientUnits="userSpaceOnUse" x1="113.2109" y1="32.9361" x2="-18.1172" y2="41.0931">
		<stop  offset="0" style="stop-color:#E1E1E1"/>
		<stop  offset="1" style="stop-color:#000000"/>
	</linearGradient>
	<path class="st0" d="M6.6,50.4c0,0-1.6-22.4,24-28h75.1c0,0-0.6,28-22.7,28H6.6z"/>
	
		<linearGradient id="SVGID_00000175282654115018308610000007924583346289694347_" gradientUnits="userSpaceOnUse" x1="113.2109" y1="147.1514" x2="-18.1172" y2="155.3084">
		<stop  offset="0" style="stop-color:#E1E1E1"/>
		<stop  offset="1" style="stop-color:#000000"/>
	</linearGradient>
	<path style="fill:url(#SVGID_00000175282654115018308610000007924583346289694347_);" d="M6.6,164.6c0,0-1.6-22.4,24-28h75.1
		c0,0-0.6,28-22.7,28H6.6z"/>
	<g>
		
			<linearGradient id="SVGID_00000033368689623564259590000005717684713430893988_" gradientUnits="userSpaceOnUse" x1="99.8678" y1="128.9865" x2="192.0422" y2="59.6517">
			<stop  offset="2.344227e-07" style="stop-color:#F77116"/>
			<stop  offset="1" style="stop-color:#FFBC00"/>
		</linearGradient>
		<path style="fill:url(#SVGID_00000033368689623564259590000005717684713430893988_);" d="M242.6,91.9c0,38.4-31.1,69.5-69.5,69.5
			h-49.5v-54.3H8.2c0,0-1.6-22.4,24-28h119.4v54.3c0,0,22-0.7,22.3-0.7c20.8-2.7,36.8-20,36.8-41s-16-38.3-36.8-41
			c-0.2,0-0.5,0-0.7-0.1l-3.3-0.3H148c-10-2.2-15.8-6.9-19.2-11.9c-5.3-7.7-4.7-16-4.7-16h49.1C211.5,22.4,242.6,53.5,242.6,91.9z"
			/>
	</g>
	<g>
		
			<linearGradient id="SVGID_00000039821779194673466980000001913961889371027588_" gradientUnits="userSpaceOnUse" x1="253.5288" y1="175.2834" x2="224.9792" y2="155.8424">
			<stop  offset="0" style="stop-color:#E1E1E1"/>
			<stop  offset="1" style="stop-color:#000000"/>
		</linearGradient>
		<path style="fill:url(#SVGID_00000039821779194673466980000001913961889371027588_);" d="M252.2,178v-11.8c0,0-26.4-9.8-25.6-16.2
			l0,13.2C226.6,163.2,225.8,168.4,252.2,178z"/>
		
			<linearGradient id="SVGID_00000035518106694106433260000010405782549373983145_" gradientUnits="userSpaceOnUse" x1="252.9299" y1="137.5748" x2="216.0193" y2="163.8812">
			<stop  offset="0" style="stop-color:#E1E1E1"/>
			<stop  offset="1" style="stop-color:#000000"/>
		</linearGradient>
		<path style="fill:url(#SVGID_00000035518106694106433260000010405782549373983145_);" d="M252.2,134.8v11.8
			c0,0-26.4,9.8-25.6,16.2l0-13.2C226.6,149.6,225.8,144.4,252.2,134.8z"/>
	</g>
	<g>
		
			<linearGradient id="SVGID_00000020397615486722703550000018334142351004631959_" gradientUnits="userSpaceOnUse" x1="755.9813" y1="175.2834" x2="727.4318" y2="155.8424" gradientTransform="matrix(-1 0 0 1 1013.9777 0)">
			<stop  offset="0" style="stop-color:#E1E1E1"/>
			<stop  offset="1" style="stop-color:#000000"/>
		</linearGradient>
		<path style="fill:url(#SVGID_00000020397615486722703550000018334142351004631959_);" d="M259.3,178v-11.8c0,0,26.4-9.8,25.6-16.2
			l0,13.2C284.9,163.2,285.7,168.4,259.3,178z"/>
		
			<linearGradient id="SVGID_00000119825864924377072470000014937886495729508240_" gradientUnits="userSpaceOnUse" x1="755.3824" y1="137.5748" x2="718.4719" y2="163.8812" gradientTransform="matrix(-1 0 0 1 1013.9777 0)">
			<stop  offset="0" style="stop-color:#E1E1E1"/>
			<stop  offset="1" style="stop-color:#000000"/>
		</linearGradient>
		<path style="fill:url(#SVGID_00000119825864924377072470000014937886495729508240_);" d="M259.3,134.8v11.8
			c0,0,26.4,9.8,25.6,16.2l0-13.2C284.9,149.6,285.7,144.4,259.3,134.8z"/>
	</g>
</g>
<g>
	
		<linearGradient id="SVGID_00000078037700869756768460000010446090082315880071_" gradientUnits="userSpaceOnUse" x1="318.0273" y1="37.5878" x2="318.6535" y2="92.6986">
		<stop  offset="2.344227e-07" style="stop-color:#F77116"/>
		<stop  offset="1" style="stop-color:#FFBC00"/>
	</linearGradient>
	<path style="fill:url(#SVGID_00000078037700869756768460000010446090082315880071_);" d="M302.4,86.6V50.8h32V57h-25.8v23.3h25.8
		v6.3H302.4z M313.2,71v-5.3H333V71H313.2z"/>
	
		<linearGradient id="SVGID_00000001663763043629332970000000317102125928819630_" gradientUnits="userSpaceOnUse" x1="342.9157" y1="37.3049" x2="343.542" y2="92.4157">
		<stop  offset="2.344227e-07" style="stop-color:#F77116"/>
		<stop  offset="1" style="stop-color:#FFBC00"/>
	</linearGradient>
	<path style="fill:url(#SVGID_00000001663763043629332970000000317102125928819630_);" d="M340.1,86.6V50.8h6.3v35.8H340.1z"/>
	
		<linearGradient id="SVGID_00000074434312709488930450000014659707975297714104_" gradientUnits="userSpaceOnUse" x1="370.0782" y1="36.9963" x2="370.7044" y2="92.1071">
		<stop  offset="2.344227e-07" style="stop-color:#F77116"/>
		<stop  offset="1" style="stop-color:#FFBC00"/>
	</linearGradient>
	<path style="fill:url(#SVGID_00000074434312709488930450000014659707975297714104_);" d="M369.3,86.6c-10,0-17.4-7.9-17.4-18.3
		c0-10.5,7.4-17.5,17.4-17.5h19.4V57h-19.4c-6.4,0-11.1,4.8-11.1,11.6c0,6.8,4.7,11.7,11.1,11.7h19.4v6.3H369.3z"/>
	
		<linearGradient id="SVGID_00000153674303551112893670000005098631183269979535_" gradientUnits="userSpaceOnUse" x1="411.0049" y1="36.5312" x2="411.6312" y2="91.642">
		<stop  offset="2.344227e-07" style="stop-color:#F77116"/>
		<stop  offset="1" style="stop-color:#FFBC00"/>
	</linearGradient>
	<path style="fill:url(#SVGID_00000153674303551112893670000005098631183269979535_);" d="M393.8,86.8v-36h6.3v36H393.8z
		 M422.7,86.8V71.2h-18v-5.6h18V50.8h6.3v36H422.7z"/>
	
		<linearGradient id="SVGID_00000067238306581028767350000017201455837428346046_" gradientUnits="userSpaceOnUse" x1="449.5425" y1="36.0933" x2="450.1688" y2="91.2041">
		<stop  offset="2.344227e-07" style="stop-color:#F77116"/>
		<stop  offset="1" style="stop-color:#FFBC00"/>
	</linearGradient>
	<path style="fill:url(#SVGID_00000067238306581028767350000017201455837428346046_);" d="M446.6,86.6V57H433v-6.3h33.5V57h-13.6
		v29.6H446.6z"/>
	
		<linearGradient id="SVGID_00000071523758440567319180000005649808526110418562_" gradientUnits="userSpaceOnUse" x1="473.7213" y1="35.8185" x2="474.3476" y2="90.9293">
		<stop  offset="2.344227e-07" style="stop-color:#F77116"/>
		<stop  offset="1" style="stop-color:#FFBC00"/>
	</linearGradient>
	<path style="fill:url(#SVGID_00000071523758440567319180000005649808526110418562_);" d="M471,86.6V50.8h6.3v35.8H471z"/>
	
		<linearGradient id="SVGID_00000175286005478234369410000010204394670758003890_" gradientUnits="userSpaceOnUse" x1="500.8829" y1="35.5099" x2="501.5092" y2="90.6207">
		<stop  offset="2.344227e-07" style="stop-color:#F77116"/>
		<stop  offset="1" style="stop-color:#FFBC00"/>
	</linearGradient>
	<path style="fill:url(#SVGID_00000175286005478234369410000010204394670758003890_);" d="M500.1,86.6c-10,0-17.4-7.9-17.4-18.3
		c0-10.5,7.4-17.5,17.4-17.5h19.4V57h-19.4c-6.4,0-11.1,4.8-11.1,11.6c0,6.8,4.7,11.7,11.1,11.7h19.4v6.3H500.1z"/>
	
		<linearGradient id="SVGID_00000082344286111969723570000003487565640406388659_" gradientUnits="userSpaceOnUse" x1="527.7393" y1="35.2047" x2="528.3655" y2="90.3155">
		<stop  offset="2.344227e-07" style="stop-color:#F77116"/>
		<stop  offset="1" style="stop-color:#FFBC00"/>
	</linearGradient>
	<path style="fill:url(#SVGID_00000082344286111969723570000003487565640406388659_);" d="M525,86.6V50.8h6.3v35.8H525z"/>
</g>
<g>
	
		<linearGradient id="SVGID_00000099635680407776237060000015978528511818298023_" gradientUnits="userSpaceOnUse" x1="322.2854" y1="168.0363" x2="321.6591" y2="96.6428">
		<stop  offset="5.327789e-09" style="stop-color:#E6E6E6"/>
		<stop  offset="1" style="stop-color:#4D4D4D"/>
	</linearGradient>
	<path style="fill:url(#SVGID_00000099635680407776237060000015978528511818298023_);" d="M302.9,147.1v-35.8h20.8
		c10.1,0,17.4,7.1,17.4,17.5c0,10.4-7.3,18.3-17.4,18.3H302.9z M323.7,140.9c6.5,0,11.2-5,11.2-11.7c0-6.8-4.7-11.6-11.2-11.6h-14.5
		v23.3H323.7z"/>
	
		<linearGradient id="SVGID_00000023277787041643681490000007620169890092083335_" gradientUnits="userSpaceOnUse" x1="362.582" y1="167.6829" x2="361.9558" y2="96.2893">
		<stop  offset="5.327789e-09" style="stop-color:#E6E6E6"/>
		<stop  offset="1" style="stop-color:#4D4D4D"/>
	</linearGradient>
	<path style="fill:url(#SVGID_00000023277787041643681490000007620169890092083335_);" d="M346.2,147.1v-35.8h32v6.3h-25.8v23.3
		h25.8v6.3H346.2z M357,131.6v-5.3h19.9v5.3H357z"/>
	
		<linearGradient id="SVGID_00000046312970950645709490000006719624608712688800_" gradientUnits="userSpaceOnUse" x1="405.3987" y1="167.3073" x2="404.7725" y2="95.9137">
		<stop  offset="5.327789e-09" style="stop-color:#E6E6E6"/>
		<stop  offset="1" style="stop-color:#4D4D4D"/>
	</linearGradient>
	<path style="fill:url(#SVGID_00000046312970950645709490000006719624608712688800_);" d="M381.2,111.3h7.6l16.3,27.6l16.2-27.6h7.2
		l-20.7,34.3c-0.7,1.2-1.7,2-3,2c-1.4,0-2.3-0.8-3.1-2L381.2,111.3z"/>
	
		<linearGradient id="SVGID_00000104686703155912476070000000522026256121888427_" gradientUnits="userSpaceOnUse" x1="448.7383" y1="166.9271" x2="448.112" y2="95.5336">
		<stop  offset="5.327789e-09" style="stop-color:#E6E6E6"/>
		<stop  offset="1" style="stop-color:#4D4D4D"/>
	</linearGradient>
	<path style="fill:url(#SVGID_00000104686703155912476070000000522026256121888427_);" d="M432.4,147.1v-35.8h32v6.3h-25.8v23.3
		h25.8v6.3H432.4z M443.2,131.6v-5.3h19.9v5.3H443.2z"/>
	
		<linearGradient id="SVGID_00000143599257574739841910000007934352938357310141_" gradientUnits="userSpaceOnUse" x1="485.2044" y1="166.6072" x2="484.5782" y2="95.2137">
		<stop  offset="5.327789e-09" style="stop-color:#E6E6E6"/>
		<stop  offset="1" style="stop-color:#4D4D4D"/>
	</linearGradient>
	<path style="fill:url(#SVGID_00000143599257574739841910000007934352938357310141_);" d="M469.8,147.1v-35.8h6.3v29.6h24.1v6.3
		H469.8z"/>
	
		<linearGradient id="SVGID_00000142138415601163300830000009388472653720402105_" gradientUnits="userSpaceOnUse" x1="525.8027" y1="166.2511" x2="525.1764" y2="94.8576">
		<stop  offset="5.327789e-09" style="stop-color:#E6E6E6"/>
		<stop  offset="1" style="stop-color:#4D4D4D"/>
	</linearGradient>
	<path style="fill:url(#SVGID_00000142138415601163300830000009388472653720402105_);" d="M521,147.1c-10,0-17.4-7.9-17.4-18.3
		c0-10.5,7.4-17.5,17.4-17.5h8.7c10.3,0,17.5,7.1,17.5,17.5c0,10.4-7.3,18.3-17.5,18.3H521z M529.8,140.9c6.6,0,11.3-5,11.3-11.7
		c0-6.8-4.7-11.6-11.3-11.6H521c-6.4,0-11.1,4.8-11.1,11.6c0,6.8,4.7,11.7,11.1,11.7H529.8z"/>
	
		<linearGradient id="SVGID_00000075143328027096741010000006824713301904860051_" gradientUnits="userSpaceOnUse" x1="571.8036" y1="165.8476" x2="571.1774" y2="94.4541">
		<stop  offset="5.327789e-09" style="stop-color:#E6E6E6"/>
		<stop  offset="1" style="stop-color:#4D4D4D"/>
	</linearGradient>
	<path style="fill:url(#SVGID_00000075143328027096741010000006824713301904860051_);" d="M563.2,137.2v-6.1h14.4c4.4,0,7-2.8,7-6.8
		c0-4.1-2.6-6.8-7-6.8h-19v29.6h-6.2v-35.8h25.2c8.3,0,13.1,5,13.1,12.8c0,7.7-4.8,13.1-13.1,13.1H563.2z"/>
	
		<linearGradient id="SVGID_00000037655799004187385130000014338270886600079791_" gradientUnits="userSpaceOnUse" x1="611.4383" y1="165.4999" x2="610.812" y2="94.1064">
		<stop  offset="5.327789e-09" style="stop-color:#E6E6E6"/>
		<stop  offset="1" style="stop-color:#4D4D4D"/>
	</linearGradient>
	<path style="fill:url(#SVGID_00000037655799004187385130000014338270886600079791_);" d="M595.1,147.1v-35.8h32v6.3h-25.8v23.3
		h25.8v6.3H595.1z M605.9,131.6v-5.3h19.9v5.3H605.9z"/>
	
		<linearGradient id="SVGID_00000177449580286713099530000006649662615918824086_" gradientUnits="userSpaceOnUse" x1="653.7691" y1="165.1286" x2="653.1429" y2="93.7351">
		<stop  offset="5.327789e-09" style="stop-color:#E6E6E6"/>
		<stop  offset="1" style="stop-color:#4D4D4D"/>
	</linearGradient>
	<path style="fill:url(#SVGID_00000177449580286713099530000006649662615918824086_);" d="M665.8,147.1l-9.1-10h-13.4v-5.5h14.9
		c4.5,0,6.9-2.6,6.9-7.2s-2.6-6.9-6.9-6.9h-19.5v29.6h-6.2v-35.8h25.7c8.2,0,13,5.1,13,13.1c0,5.9-2.8,10.1-7.4,11.9l10.8,10.9
		H665.8z"/>
</g>
</svg>
