<?xml version="1.0" encoding="utf-8"?>
<!-- Generator: Adobe Illustrator 26.0.0, SVG Export Plug-In . SVG Version: 6.00 Build 0)  -->
<svg version="1.1" id="Capa_1" xmlns="http://www.w3.org/2000/svg" xmlns:xlink="http://www.w3.org/1999/xlink" x="0px" y="0px"
	 viewBox="0 0 360 200" style="enable-background:new 0 0 360 200;" xml:space="preserve">
<style type="text/css">
	.st0{fill:url(#SVGID_1_);}
	.st1{fill:url(#SVGID_00000139999168114714262500000014238219774781408158_);}
	.st2{fill:url(#SVGID_00000013190659306687780190000011780184501129053112_);}
	.st3{fill:url(#SVGID_00000050626219840118721730000017283026335056287158_);}
	.st4{fill:url(#SVGID_00000026845240127266210760000003505690955120204724_);}
	.st5{fill:url(#SVGID_00000172408518172136830220000012528490767288672413_);}
	.st6{fill:url(#SVGID_00000070808688017593531880000003688759157654898067_);}
</style>
<g>
	<linearGradient id="SVGID_1_" gradientUnits="userSpaceOnUse" x1="139.7315" y1="16.3977" x2="-24.694" y2="26.6105">
		<stop  offset="0" style="stop-color:#E1E1E1"/>
		<stop  offset="1" style="stop-color:#000000"/>
	</linearGradient>
	<path class="st0" d="M6.3,38.3c0,0-2-28,30-35h94c0,0-0.7,35-28.4,35H6.3z"/>
	
		<linearGradient id="SVGID_00000085241194326568686440000014429735743738248857_" gradientUnits="userSpaceOnUse" x1="139.7315" y1="159.3977" x2="-24.694" y2="169.6105">
		<stop  offset="0" style="stop-color:#E1E1E1"/>
		<stop  offset="1" style="stop-color:#000000"/>
	</linearGradient>
	<path style="fill:url(#SVGID_00000085241194326568686440000014429735743738248857_);" d="M6.3,181.3c0,0-2-28,30-35h94
		c0,0-0.7,35-28.4,35H6.3z"/>
	<g>
		
			<linearGradient id="SVGID_00000019671421646437038960000001236712129450021304_" gradientUnits="userSpaceOnUse" x1="123.0256" y1="136.6548" x2="238.4299" y2="49.8463">
			<stop  offset="2.344227e-07" style="stop-color:#F77116"/>
			<stop  offset="1" style="stop-color:#FFBC00"/>
		</linearGradient>
		<path style="fill:url(#SVGID_00000019671421646437038960000001236712129450021304_);" d="M301.8,90.3c0,48-39,87-87,87h-62v-68
			H8.3c0,0-2-28,30-35h149.5v68c0,0,27.6-0.8,27.9-0.9c26-3.4,46.1-25.1,46.1-51.3s-20.1-48-46.1-51.3c-0.3,0-0.6-0.1-0.9-0.1
			l-4.1-0.4h-27.4c-12.5-2.7-19.8-8.7-24.1-14.9c-6.6-9.7-5.9-20.1-5.9-20.1h61.5C262.8,3.3,301.8,42.2,301.8,90.3z"/>
	</g>
	<g>
		
			<linearGradient id="SVGID_00000080168678868783041780000017055430928234124441_" gradientUnits="userSpaceOnUse" x1="315.4124" y1="194.6195" x2="279.6677" y2="170.2791">
			<stop  offset="0" style="stop-color:#E1E1E1"/>
			<stop  offset="1" style="stop-color:#000000"/>
		</linearGradient>
		<path style="fill:url(#SVGID_00000080168678868783041780000017055430928234124441_);" d="M313.7,198v-14.8c0,0-33-12.3-32-20.3
			l0,16.5C281.8,179.5,280.7,186,313.7,198z"/>
		
			<linearGradient id="SVGID_00000116916048354919182840000009015697654946753945_" gradientUnits="userSpaceOnUse" x1="314.6626" y1="147.4075" x2="268.4498" y2="180.3437">
			<stop  offset="0" style="stop-color:#E1E1E1"/>
			<stop  offset="1" style="stop-color:#000000"/>
		</linearGradient>
		<path style="fill:url(#SVGID_00000116916048354919182840000009015697654946753945_);" d="M313.7,143.9v14.8c0,0-33,12.3-32,20.3
			l0-16.5C281.8,162.5,280.7,155.9,313.7,143.9z"/>
	</g>
	<g>
		
			<linearGradient id="SVGID_00000163069299364969050150000009176476053153475475_" gradientUnits="userSpaceOnUse" x1="352.9718" y1="194.6195" x2="317.2271" y2="170.2791" gradientTransform="matrix(-1 0 0 1 673.9777 0)">
			<stop  offset="0" style="stop-color:#E1E1E1"/>
			<stop  offset="1" style="stop-color:#000000"/>
		</linearGradient>
		<path style="fill:url(#SVGID_00000163069299364969050150000009176476053153475475_);" d="M322.7,198v-14.8c0,0,33-12.3,32-20.3
			l0,16.5C354.7,179.5,355.7,186,322.7,198z"/>
		
			<linearGradient id="SVGID_00000111902538536934202920000015289769883900515973_" gradientUnits="userSpaceOnUse" x1="352.222" y1="147.4075" x2="306.0092" y2="180.3437" gradientTransform="matrix(-1 0 0 1 673.9777 0)">
			<stop  offset="0" style="stop-color:#E1E1E1"/>
			<stop  offset="1" style="stop-color:#000000"/>
		</linearGradient>
		<path style="fill:url(#SVGID_00000111902538536934202920000015289769883900515973_);" d="M322.7,143.9v14.8c0,0,33,12.3,32,20.3
			l0-16.5C354.7,162.5,355.7,155.9,322.7,143.9z"/>
	</g>
</g>
</svg>
