<?xml version="1.0" encoding="utf-8"?>
<!-- Generator: Adobe Illustrator 26.0.0, SVG Export Plug-In . SVG Version: 6.00 Build 0)  -->
<svg version="1.1" id="Capa_1" xmlns="http://www.w3.org/2000/svg" xmlns:xlink="http://www.w3.org/1999/xlink" x="0px" y="0px"
	 viewBox="0 0 360 200" style="enable-background:new 0 0 360 200;" xml:space="preserve">
<style type="text/css">
	.st0{fill:#FFFFFF;}
</style>
<g>
	<path class="st0" d="M6.3,38.3c0,0-2-28,30-35h94c0,0-0.7,35-28.4,35H6.3z"/>
	<path class="st0" d="M6.3,181.3c0,0-2-28,30-35h94c0,0-0.7,35-28.4,35H6.3z"/>
	<g>
		<path class="st0" d="M301.8,90.3c0,48-39,87-87,87h-62v-68H8.3c0,0-2-28,30-35h149.5v68c0,0,27.6-0.8,27.9-0.9
			c26-3.4,46.1-25.1,46.1-51.3s-20.1-48-46.1-51.3c-0.3,0-0.6-0.1-0.9-0.1l-4.1-0.4h-27.4c-12.5-2.7-19.8-8.7-24.1-14.9
			c-6.6-9.7-5.9-20.1-5.9-20.1h61.5C262.8,3.3,301.8,42.2,301.8,90.3z"/>
	</g>
	<g>
		<path class="st0" d="M313.7,198v-14.8c0,0-33-12.3-32-20.3l0,16.5C281.8,179.5,280.7,186,313.7,198z"/>
		<path class="st0" d="M313.7,143.9v14.8c0,0-33,12.3-32,20.3l0-16.5C281.8,162.5,280.7,155.9,313.7,143.9z"/>
	</g>
	<g>
		<path class="st0" d="M322.7,198v-14.8c0,0,33-12.3,32-20.3l0,16.5C354.7,179.5,355.7,186,322.7,198z"/>
		<path class="st0" d="M322.7,143.9v14.8c0,0,33,12.3,32,20.3l0-16.5C354.7,162.5,355.7,155.9,322.7,143.9z"/>
	</g>
</g>
</svg>
