<?xml version="1.0" encoding="utf-8"?>
<!-- Generator: Adobe Illustrator 26.0.0, SVG Export Plug-In . SVG Version: 6.00 Build 0)  -->
<svg version="1.1" id="Capa_1" xmlns="http://www.w3.org/2000/svg" xmlns:xlink="http://www.w3.org/1999/xlink" x="0px" y="0px"
	 viewBox="0 0 360 260" style="enable-background:new 0 0 360 260;" xml:space="preserve">
<style type="text/css">
	.st0{fill:url(#SVGID_1_);}
	.st1{fill:url(#SVGID_00000001636889544667231460000007864784170010715070_);}
	.st2{fill:url(#SVGID_00000034773742572350367980000015542420747472739753_);}
	.st3{fill:url(#SVGID_00000047038136465165845610000007554971306087566769_);}
	.st4{fill:url(#SVGID_00000050656373694239452240000012135474314085282457_);}
	.st5{fill:url(#SVGID_00000074424419296646306320000011253413073451409070_);}
	.st6{fill:url(#SVGID_00000018940048014640445520000018350687458489138825_);}
	.st7{fill:url(#SVGID_00000114059669420613468320000014349046987919888042_);}
	.st8{fill:url(#SVGID_00000157282291245235007350000011846622857557171343_);}
	.st9{fill:url(#SVGID_00000072243810503089860270000011235003723960836276_);}
	.st10{fill:url(#SVGID_00000157295602101961960800000015404436619993005464_);}
	.st11{fill:url(#SVGID_00000134930593250064791200000006409267959329059765_);}
	.st12{fill:url(#SVGID_00000179630645455002984760000010792996069985674128_);}
	.st13{fill:url(#SVGID_00000024697527082380224620000006973929295890622343_);}
	.st14{fill:url(#SVGID_00000089534453358309592570000014003202392886454657_);}
	.st15{fill:url(#SVGID_00000142139127828511132490000013403392552182946212_);}
	.st16{fill:url(#SVGID_00000112597648367948077220000001190801100903487366_);}
	.st17{fill:url(#SVGID_00000100351855309170466680000004772765438626045111_);}
	.st18{fill:url(#SVGID_00000155119156587827033070000015107685186522596480_);}
	.st19{fill:url(#SVGID_00000060746443416503087940000011908413716631287450_);}
	.st20{fill:url(#SVGID_00000093134627785245119200000005000854113800214420_);}
	.st21{fill:url(#SVGID_00000176011139262216844640000008946332541753546939_);}
	.st22{fill:url(#SVGID_00000132080177556610267430000017003372849191421835_);}
	.st23{fill:url(#SVGID_00000154407025517250568480000007768309159206495399_);}
</style>
<g>
	<linearGradient id="SVGID_1_" gradientUnits="userSpaceOnUse" x1="17.5291" y1="224.2766" x2="17.8695" y2="254.2341">
		<stop  offset="2.344227e-07" style="stop-color:#F77116"/>
		<stop  offset="1" style="stop-color:#FFBC00"/>
	</linearGradient>
	<path class="st0" d="M9,250.9v-19.5h17.4v3.4h-14v12.7h14v3.4H9z M14.9,242.5v-2.9h10.8v2.9H14.9z"/>
	
		<linearGradient id="SVGID_00000021799199669710286690000010795829648760430729_" gradientUnits="userSpaceOnUse" x1="31.0581" y1="224.1229" x2="31.3986" y2="254.0803">
		<stop  offset="2.344227e-07" style="stop-color:#F77116"/>
		<stop  offset="1" style="stop-color:#FFBC00"/>
	</linearGradient>
	<path style="fill:url(#SVGID_00000021799199669710286690000010795829648760430729_);" d="M29.6,250.9v-19.5H33v19.5H29.6z"/>
	
		<linearGradient id="SVGID_00000176766125340784636550000017909851774792388778_" gradientUnits="userSpaceOnUse" x1="45.8233" y1="223.9551" x2="46.1637" y2="253.9126">
		<stop  offset="2.344227e-07" style="stop-color:#F77116"/>
		<stop  offset="1" style="stop-color:#FFBC00"/>
	</linearGradient>
	<path style="fill:url(#SVGID_00000176766125340784636550000017909851774792388778_);" d="M45.4,250.9c-5.4,0-9.5-4.3-9.5-9.9
		c0-5.7,4-9.5,9.5-9.5H56v3.4H45.4c-3.5,0-6.1,2.6-6.1,6.3c0,3.7,2.5,6.4,6.1,6.4H56v3.4H45.4z"/>
	
		<linearGradient id="SVGID_00000066486024323526127910000005509460243852566454_" gradientUnits="userSpaceOnUse" x1="68.0705" y1="223.7023" x2="68.4109" y2="253.6597">
		<stop  offset="2.344227e-07" style="stop-color:#F77116"/>
		<stop  offset="1" style="stop-color:#FFBC00"/>
	</linearGradient>
	<path style="fill:url(#SVGID_00000066486024323526127910000005509460243852566454_);" d="M58.7,251v-19.6h3.4V251H58.7z M74.4,251
		v-8.5h-9.8v-3h9.8v-8.1h3.4V251H74.4z"/>
	
		<linearGradient id="SVGID_00000108991769433948754440000015993805636629441408_" gradientUnits="userSpaceOnUse" x1="89.019" y1="223.4642" x2="89.3594" y2="253.4217">
		<stop  offset="2.344227e-07" style="stop-color:#F77116"/>
		<stop  offset="1" style="stop-color:#FFBC00"/>
	</linearGradient>
	<path style="fill:url(#SVGID_00000108991769433948754440000015993805636629441408_);" d="M87.4,250.9v-16.1H80v-3.4h18.2v3.4h-7.4
		v16.1H87.4z"/>
	
		<linearGradient id="SVGID_00000105397093344134650290000004411708640104468363_" gradientUnits="userSpaceOnUse" x1="102.1622" y1="223.3149" x2="102.5027" y2="253.2723">
		<stop  offset="2.344227e-07" style="stop-color:#F77116"/>
		<stop  offset="1" style="stop-color:#FFBC00"/>
	</linearGradient>
	<path style="fill:url(#SVGID_00000105397093344134650290000004411708640104468363_);" d="M100.7,250.9v-19.5h3.4v19.5H100.7z"/>
	
		<linearGradient id="SVGID_00000052821987987990287330000012387344322057381517_" gradientUnits="userSpaceOnUse" x1="116.9269" y1="223.1471" x2="117.2673" y2="253.1046">
		<stop  offset="2.344227e-07" style="stop-color:#F77116"/>
		<stop  offset="1" style="stop-color:#FFBC00"/>
	</linearGradient>
	<path style="fill:url(#SVGID_00000052821987987990287330000012387344322057381517_);" d="M116.5,250.9c-5.4,0-9.5-4.3-9.5-9.9
		c0-5.7,4-9.5,9.5-9.5h10.6v3.4h-10.6c-3.5,0-6.1,2.6-6.1,6.3c0,3.7,2.5,6.4,6.1,6.4h10.6v3.4H116.5z"/>
	
		<linearGradient id="SVGID_00000111151495059268778720000003086187062528406934_" gradientUnits="userSpaceOnUse" x1="131.5256" y1="222.9812" x2="131.8661" y2="252.9387">
		<stop  offset="2.344227e-07" style="stop-color:#F77116"/>
		<stop  offset="1" style="stop-color:#FFBC00"/>
	</linearGradient>
	<path style="fill:url(#SVGID_00000111151495059268778720000003086187062528406934_);" d="M130,250.9v-19.5h3.4v19.5H130z"/>
</g>
<g>
	
		<linearGradient id="SVGID_00000070826541309236900030000011244093997997667512_" gradientUnits="userSpaceOnUse" x1="161.5527" y1="262.2804" x2="161.2123" y2="223.4719">
		<stop  offset="5.327789e-09" style="stop-color:#E6E6E6"/>
		<stop  offset="1" style="stop-color:#4D4D4D"/>
	</linearGradient>
	<path style="fill:url(#SVGID_00000070826541309236900030000011244093997997667512_);" d="M151,250.9v-19.5h11.3
		c5.5,0,9.5,3.9,9.5,9.5c0,5.7-4,9.9-9.5,9.9H151z M162.3,247.5c3.5,0,6.1-2.7,6.1-6.4s-2.6-6.3-6.1-6.3h-7.9v12.7H162.3z"/>
	
		<linearGradient id="SVGID_00000028296959039898693500000007110954490059168430_" gradientUnits="userSpaceOnUse" x1="183.4574" y1="262.0882" x2="183.1169" y2="223.2797">
		<stop  offset="5.327789e-09" style="stop-color:#E6E6E6"/>
		<stop  offset="1" style="stop-color:#4D4D4D"/>
	</linearGradient>
	<path style="fill:url(#SVGID_00000028296959039898693500000007110954490059168430_);" d="M174.6,250.9v-19.5H192v3.4h-14v12.7h14
		v3.4H174.6z M180.4,242.5v-2.9h10.8v2.9H180.4z"/>
	
		<linearGradient id="SVGID_00000045605864119497588610000000126748822282802049_" gradientUnits="userSpaceOnUse" x1="206.7319" y1="261.8841" x2="206.3915" y2="223.0756">
		<stop  offset="5.327789e-09" style="stop-color:#E6E6E6"/>
		<stop  offset="1" style="stop-color:#4D4D4D"/>
	</linearGradient>
	<path style="fill:url(#SVGID_00000045605864119497588610000000126748822282802049_);" d="M193.6,231.4h4.2l8.8,15l8.8-15h3.9
		l-11.2,18.6c-0.4,0.7-0.9,1.1-1.6,1.1c-0.8,0-1.3-0.4-1.7-1.1L193.6,231.4z"/>
	
		<linearGradient id="SVGID_00000085251233631027407010000000605034811691332789_" gradientUnits="userSpaceOnUse" x1="230.2907" y1="261.6774" x2="229.9502" y2="222.8689">
		<stop  offset="5.327789e-09" style="stop-color:#E6E6E6"/>
		<stop  offset="1" style="stop-color:#4D4D4D"/>
	</linearGradient>
	<path style="fill:url(#SVGID_00000085251233631027407010000000605034811691332789_);" d="M221.4,250.9v-19.5h17.4v3.4h-14v12.7h14
		v3.4H221.4z M227.3,242.5v-2.9h10.8v2.9H227.3z"/>
	
		<linearGradient id="SVGID_00000119832067338683777370000000853272000873115276_" gradientUnits="userSpaceOnUse" x1="250.1132" y1="261.5035" x2="249.7727" y2="222.695">
		<stop  offset="5.327789e-09" style="stop-color:#E6E6E6"/>
		<stop  offset="1" style="stop-color:#4D4D4D"/>
	</linearGradient>
	<path style="fill:url(#SVGID_00000119832067338683777370000000853272000873115276_);" d="M241.8,250.9v-19.5h3.4v16.1h13.1v3.4
		H241.8z"/>
	
		<linearGradient id="SVGID_00000018951243539548106410000006131340662078793659_" gradientUnits="userSpaceOnUse" x1="272.1818" y1="261.3099" x2="271.8414" y2="222.5014">
		<stop  offset="5.327789e-09" style="stop-color:#E6E6E6"/>
		<stop  offset="1" style="stop-color:#4D4D4D"/>
	</linearGradient>
	<path style="fill:url(#SVGID_00000018951243539548106410000006131340662078793659_);" d="M269.6,250.9c-5.4,0-9.5-4.3-9.5-9.9
		c0-5.7,4-9.5,9.5-9.5h4.7c5.6,0,9.5,3.9,9.5,9.5c0,5.7-4,9.9-9.5,9.9H269.6z M274.3,247.5c3.6,0,6.1-2.7,6.1-6.4s-2.5-6.3-6.1-6.3
		h-4.7c-3.5,0-6.1,2.6-6.1,6.3c0,3.7,2.5,6.4,6.1,6.4H274.3z"/>
	
		<linearGradient id="SVGID_00000134241491780370637260000009446755581524435118_" gradientUnits="userSpaceOnUse" x1="297.1873" y1="261.0906" x2="296.8469" y2="222.2821">
		<stop  offset="5.327789e-09" style="stop-color:#E6E6E6"/>
		<stop  offset="1" style="stop-color:#4D4D4D"/>
	</linearGradient>
	<path style="fill:url(#SVGID_00000134241491780370637260000009446755581524435118_);" d="M292.5,245.5v-3.3h7.8
		c2.4,0,3.8-1.5,3.8-3.7c0-2.2-1.4-3.7-3.8-3.7H290v16.1h-3.4v-19.5h13.7c4.5,0,7.1,2.7,7.1,7c0,4.2-2.6,7.1-7.1,7.1H292.5z"/>
	
		<linearGradient id="SVGID_00000163795210772356149000000004284255601431056280_" gradientUnits="userSpaceOnUse" x1="318.7321" y1="260.9016" x2="318.3917" y2="222.0931">
		<stop  offset="5.327789e-09" style="stop-color:#E6E6E6"/>
		<stop  offset="1" style="stop-color:#4D4D4D"/>
	</linearGradient>
	<path style="fill:url(#SVGID_00000163795210772356149000000004284255601431056280_);" d="M309.9,250.9v-19.5h17.4v3.4h-14v12.7h14
		v3.4H309.9z M315.7,242.5v-2.9h10.8v2.9H315.7z"/>
	
		<linearGradient id="SVGID_00000069367060874817774100000009954347637797175177_" gradientUnits="userSpaceOnUse" x1="341.7426" y1="260.6998" x2="341.4021" y2="221.8913">
		<stop  offset="5.327789e-09" style="stop-color:#E6E6E6"/>
		<stop  offset="1" style="stop-color:#4D4D4D"/>
	</linearGradient>
	<path style="fill:url(#SVGID_00000069367060874817774100000009954347637797175177_);" d="M348.3,250.9l-4.9-5.4h-7.3v-3h8.1
		c2.4,0,3.7-1.4,3.7-3.9s-1.4-3.8-3.7-3.8h-10.6v16.1h-3.4v-19.5h14c4.4,0,7.1,2.8,7.1,7.1c0,3.2-1.5,5.5-4,6.5l5.9,5.9H348.3z"/>
</g>
<linearGradient id="SVGID_00000065759180749660892210000014123329397649216422_" gradientUnits="userSpaceOnUse" x1="141.0112" y1="22.3769" x2="-23.4143" y2="32.5897">
	<stop  offset="0" style="stop-color:#E1E1E1"/>
	<stop  offset="1" style="stop-color:#000000"/>
</linearGradient>
<path style="fill:url(#SVGID_00000065759180749660892210000014123329397649216422_);" d="M7.5,44.2c0,0-2-28,30-35h94
	c0,0-0.7,35-28.4,35H7.5z"/>
<linearGradient id="SVGID_00000162345851765851423600000002654332777999682956_" gradientUnits="userSpaceOnUse" x1="141.0112" y1="165.3769" x2="-23.4143" y2="175.5897">
	<stop  offset="0" style="stop-color:#E1E1E1"/>
	<stop  offset="1" style="stop-color:#000000"/>
</linearGradient>
<path style="fill:url(#SVGID_00000162345851765851423600000002654332777999682956_);" d="M7.5,187.2c0,0-2-28,30-35h94
	c0,0-0.7,35-28.4,35H7.5z"/>
<g>
	
		<linearGradient id="SVGID_00000095312595533429253270000008824668876407923117_" gradientUnits="userSpaceOnUse" x1="124.3054" y1="142.634" x2="239.7096" y2="55.8255">
		<stop  offset="2.344227e-07" style="stop-color:#F77116"/>
		<stop  offset="1" style="stop-color:#FFBC00"/>
	</linearGradient>
	<path style="fill:url(#SVGID_00000095312595533429253270000008824668876407923117_);" d="M303,96.2c0,48-39,87-87,87h-62v-68H9.5
		c0,0-2-28,30-35H189v68c0,0,27.6-0.8,27.9-0.9c26-3.4,46.1-25.1,46.1-51.3s-20.1-48-46.1-51.3c-0.3,0-0.6-0.1-0.9-0.1l-4.1-0.4
		h-27.4c-12.5-2.7-19.8-8.7-24.1-14.9c-6.6-9.7-5.9-20.1-5.9-20.1H216C264.1,9.2,303,48.2,303,96.2z"/>
</g>
<g>
	
		<linearGradient id="SVGID_00000111877275054028264410000015545719642518139320_" gradientUnits="userSpaceOnUse" x1="316.6921" y1="200.5987" x2="280.9474" y2="176.2583">
		<stop  offset="0" style="stop-color:#E1E1E1"/>
		<stop  offset="1" style="stop-color:#000000"/>
	</linearGradient>
	<path style="fill:url(#SVGID_00000111877275054028264410000015545719642518139320_);" d="M315,204v-14.8c0,0-33-12.3-32-20.3
		l0,16.5C283,185.5,282,192,315,204z"/>
	
		<linearGradient id="SVGID_00000081606762846669927670000001377264756085470592_" gradientUnits="userSpaceOnUse" x1="315.9423" y1="153.3868" x2="269.7295" y2="186.3229">
		<stop  offset="0" style="stop-color:#E1E1E1"/>
		<stop  offset="1" style="stop-color:#000000"/>
	</linearGradient>
	<path style="fill:url(#SVGID_00000081606762846669927670000001377264756085470592_);" d="M315,149.9v14.8c0,0-33,12.3-32,20.3
		l0-16.5C283,168.5,282,161.9,315,149.9z"/>
</g>
<g>
	
		<linearGradient id="SVGID_00000171700748920700340510000001255896231190850997_" gradientUnits="userSpaceOnUse" x1="351.6921" y1="200.5987" x2="315.9474" y2="176.2583" gradientTransform="matrix(-1 0 0 1 673.9777 0)">
		<stop  offset="0" style="stop-color:#E1E1E1"/>
		<stop  offset="1" style="stop-color:#000000"/>
	</linearGradient>
	<path style="fill:url(#SVGID_00000171700748920700340510000001255896231190850997_);" d="M324,204v-14.8c0,0,33-12.3,32-20.3
		l0,16.5C355.9,185.5,357,192,324,204z"/>
	
		<linearGradient id="SVGID_00000054230017291351493630000016929167054743829439_" gradientUnits="userSpaceOnUse" x1="350.9423" y1="153.3868" x2="304.7295" y2="186.3229" gradientTransform="matrix(-1 0 0 1 673.9777 0)">
		<stop  offset="0" style="stop-color:#E1E1E1"/>
		<stop  offset="1" style="stop-color:#000000"/>
	</linearGradient>
	<path style="fill:url(#SVGID_00000054230017291351493630000016929167054743829439_);" d="M324,149.9v14.8c0,0,33,12.3,32,20.3
		l0-16.5C355.9,168.5,357,161.9,324,149.9z"/>
</g>
</svg>
